<?xml version="1.0" encoding="UTF-8" standalone="no"?>
<!DOCTYPE svg PUBLIC "-//W3C//DTD SVG 1.1//EN" "http://www.w3.org/Graphics/SVG/1.1/DTD/svg11.dtd">
<svg width="100%" height="100%" viewBox="0 0 991 701" version="1.1" xmlns="http://www.w3.org/2000/svg" xmlns:xlink="http://www.w3.org/1999/xlink" xml:space="preserve" xmlns:serif="http://www.serif.com/" style="fill-rule:evenodd;clip-rule:evenodd;stroke-linejoin:round;stroke-miterlimit:2;">
    <g transform="matrix(1,0,0,1,-10759.576533,-689.485627)">
        <g id="logoo" transform="matrix(0.199683,0,0,0.199693,8684.305067,689.485627)">
            <rect x="10392.85" y="0" width="4960.63" height="3507.874" style="fill:none;"/>
            <g transform="matrix(14.078677,0,0,14.114026,-108225.042849,-5788.967947)">
                <g>
                    <g>
                        <path d="M8443.489,513.19L8443.489,461.744L8453.459,461.744L8453.459,483.521L8474.751,483.521L8474.751,461.744L8484.653,461.744L8484.653,513.19L8474.751,513.19L8474.751,490.929L8453.459,490.929L8453.459,513.19L8443.489,513.19Z" style="fill-rule:nonzero;"/>
                        <rect x="8498.951" y="461.744" width="10.005" height="51.446" style="fill-rule:nonzero;"/>
                        <path d="M8536.86,513.744C8534.552,513.744 8532.354,513.571 8530.265,513.225C8528.176,512.879 8526.376,512.469 8524.864,511.996C8523.352,511.523 8522.273,511.09 8521.627,510.698L8523.289,502.77C8524.166,503.277 8525.285,503.779 8526.647,504.276C8528.009,504.772 8529.515,505.181 8531.165,505.505C8532.815,505.828 8534.483,505.989 8536.168,505.989C8539.053,505.989 8541.217,505.528 8542.659,504.604C8544.102,503.681 8544.823,502.193 8544.823,500.138C8544.823,498.707 8544.442,497.507 8543.68,496.538C8542.919,495.568 8541.73,494.628 8540.115,493.716C8538.499,492.805 8536.445,491.749 8533.952,490.549C8531.829,489.51 8529.809,488.269 8527.894,486.827C8525.978,485.384 8524.414,483.676 8523.202,481.703C8521.991,479.73 8521.385,477.439 8521.385,474.831C8521.385,472.384 8521.858,470.301 8522.804,468.582C8523.751,466.862 8525.049,465.454 8526.699,464.358C8528.349,463.262 8530.23,462.46 8532.342,461.952C8534.454,461.444 8536.699,461.19 8539.076,461.19C8542.492,461.19 8545.302,461.513 8547.506,462.16C8549.71,462.806 8551.262,463.429 8552.163,464.029L8550.431,471.646C8549.301,470.884 8547.835,470.192 8546.035,469.568C8544.234,468.945 8542.053,468.634 8539.491,468.634C8537.83,468.634 8536.358,468.836 8535.077,469.24C8533.796,469.643 8532.787,470.249 8532.048,471.057C8531.309,471.865 8530.94,472.869 8530.94,474.069C8530.94,475.454 8531.257,476.625 8531.892,477.583C8532.527,478.541 8533.554,479.458 8534.973,480.335C8536.393,481.213 8538.234,482.217 8540.495,483.347C8542.411,484.294 8544.223,485.275 8545.931,486.29C8547.639,487.306 8549.151,488.425 8550.466,489.648C8551.782,490.872 8552.815,492.268 8553.565,493.837C8554.315,495.407 8554.69,497.207 8554.69,499.238C8554.69,502.354 8553.963,504.991 8552.509,507.149C8551.055,509.307 8548.995,510.946 8546.329,512.065C8543.663,513.185 8540.507,513.744 8536.86,513.744Z" style="fill-rule:nonzero;"/>
                        <path d="M8575.774,513.19L8575.774,469.361L8560.714,469.361L8560.714,461.744L8600.804,461.744L8600.804,469.361L8585.779,469.361L8585.779,513.19L8575.774,513.19Z" style="fill-rule:nonzero;"/>
                        <path d="M8630.509,513.744C8625.616,513.837 8621.409,512.769 8617.89,510.542C8614.37,508.315 8611.687,505.181 8609.84,501.142C8607.994,497.103 8607.117,492.441 8607.209,487.156C8607.325,481.27 8608.455,476.423 8610.602,472.615C8612.748,468.807 8615.639,465.968 8619.274,464.098C8622.91,462.229 8627,461.26 8631.547,461.19C8636.21,461.121 8640.26,462.16 8643.699,464.306C8647.138,466.453 8649.775,469.499 8651.61,473.446C8653.445,477.393 8654.305,482.043 8654.189,487.398C8654.074,493.284 8652.989,498.159 8650.935,502.025C8648.881,505.891 8646.094,508.788 8642.574,510.715C8639.054,512.642 8635.032,513.652 8630.509,513.744ZM8630.716,506.37C8634.825,506.37 8638.079,504.789 8640.479,501.627C8642.88,498.465 8644.08,493.607 8644.08,487.052C8644.08,483.636 8643.607,480.532 8642.661,477.739C8641.714,474.946 8640.295,472.73 8638.402,471.092C8636.51,469.453 8634.132,468.634 8631.27,468.634C8628.755,468.634 8626.435,469.274 8624.312,470.555C8622.188,471.836 8620.492,473.867 8619.222,476.648C8617.953,479.43 8617.318,483.07 8617.318,487.571C8617.318,491.01 8617.82,494.155 8618.824,497.005C8619.828,499.856 8621.323,502.129 8623.308,503.825C8625.293,505.522 8627.762,506.37 8630.716,506.37Z" style="fill-rule:nonzero;"/>
                        <rect x="8665.718" y="461.744" width="10.005" height="51.446" style="fill-rule:nonzero;"/>
                        <path d="M8700.027,513.19L8690.056,513.19L8690.056,461.744L8693.968,461.744C8695.676,461.744 8697.684,461.652 8699.992,461.467C8702.3,461.283 8704.989,461.19 8708.059,461.19C8710.528,461.19 8712.859,461.45 8715.052,461.969C8717.245,462.489 8719.183,463.343 8720.868,464.531C8722.553,465.72 8723.88,467.295 8724.85,469.257C8725.819,471.219 8726.304,473.631 8726.304,476.493C8726.304,479.747 8725.761,482.465 8724.676,484.646C8723.592,486.827 8722.057,488.529 8720.072,489.752C8718.087,490.975 8715.767,491.795 8713.113,492.21C8712.167,492.372 8711.215,492.505 8710.257,492.608C8709.299,492.712 8708.036,492.799 8706.466,492.868C8704.897,492.937 8702.75,492.972 8700.027,492.972L8700.027,513.19ZM8700.027,485.979C8700.488,486.048 8701.181,486.1 8702.104,486.134C8703.027,486.169 8703.962,486.186 8704.908,486.186L8707.228,486.186C8710.274,486.186 8712.582,485.367 8714.152,483.728C8715.721,482.09 8716.506,479.782 8716.506,476.804C8716.506,475.073 8716.218,473.573 8715.641,472.304C8715.064,471.034 8714.06,470.053 8712.629,469.361C8711.198,468.668 8709.236,468.322 8706.743,468.322C8705.543,468.322 8704.36,468.374 8703.194,468.478C8702.029,468.582 8700.973,468.738 8700.027,468.945L8700.027,485.979ZM8718.791,513.19C8718.491,512.775 8718.231,512.325 8718.012,511.84C8717.793,511.355 8717.429,510.559 8716.921,509.451C8716.206,507.905 8715.531,506.203 8714.896,504.345C8714.261,502.487 8713.581,500.704 8712.854,498.996C8712.127,497.288 8711.296,495.857 8710.361,494.703C8709.426,493.549 8708.301,492.903 8706.985,492.764C8706.985,492.764 8708.815,490.725 8710.067,490.375C8711.596,489.948 8716.16,490.202 8716.16,490.202C8717.498,490.779 8718.681,491.783 8719.708,493.214C8720.736,494.645 8721.688,496.301 8722.565,498.182C8723.442,500.063 8724.29,501.985 8725.109,503.947C8725.929,505.908 8726.8,507.732 8727.723,509.417C8728.069,510.04 8728.421,510.669 8728.779,511.303C8729.137,511.938 8729.489,512.567 8729.835,513.19L8718.791,513.19Z" style="fill-rule:nonzero;"/>
                        <path d="M8739.217,513.19L8739.217,461.744L8770.133,461.744L8770.133,469.257L8749.153,469.257L8749.153,483.105L8764.94,483.105L8764.94,490.479L8749.153,490.479L8749.153,505.505L8772.384,505.505L8772.384,513.19L8739.217,513.19Z" style="fill-rule:nonzero;"/>
                    </g>
                    <g>
                        <g transform="matrix(0.695576,0,0,0.693797,2650.042076,191.627493)">
                            <path d="M8442.014,513.19L8442.014,474.632L8445.232,474.632C8445.976,474.632 8446.884,474.597 8447.957,474.528C8449.029,474.459 8450.171,474.389 8451.382,474.32C8452.593,474.251 8453.778,474.216 8454.937,474.216C8461.302,474.216 8465.999,475.847 8469.026,479.108C8472.054,482.368 8473.567,486.948 8473.567,492.847C8473.567,497.241 8472.793,500.995 8471.245,504.109C8469.697,507.222 8467.487,509.597 8464.615,511.231C8461.744,512.866 8458.318,513.657 8454.34,513.605C8452.766,513.571 8451.139,513.493 8449.462,513.372C8447.784,513.251 8446.253,513.19 8444.869,513.19L8442.014,513.19ZM8449.487,507.637C8450.197,507.793 8451.066,507.906 8452.095,507.975C8453.124,508.044 8454.123,508.079 8455.092,508.079C8457.203,508.044 8459.062,507.529 8460.671,506.535C8462.28,505.54 8463.534,503.992 8464.434,501.89C8465.333,499.788 8465.783,497.068 8465.783,493.729C8465.783,490.235 8465.35,487.459 8464.485,485.4C8463.62,483.341 8462.319,481.862 8460.58,480.963C8458.842,480.063 8456.666,479.614 8454.054,479.614C8453.189,479.614 8452.342,479.653 8451.511,479.73C8450.681,479.808 8450.006,479.89 8449.487,479.977L8449.487,507.637Z" style="fill-rule:nonzero;"/>
                        </g>
                        <g transform="matrix(0.695576,0,0,0.693797,2650.042076,191.627493)">
                            <path d="M8481.429,513.19L8481.429,474.632L8504.601,474.632L8504.601,480.262L8488.877,480.262L8488.877,490.641L8500.709,490.641L8500.709,496.168L8488.877,496.168L8488.877,507.43L8506.288,507.43L8506.288,513.19L8481.429,513.19Z" style="fill-rule:nonzero;"/>
                        </g>
                        <g transform="matrix(0.695576,0,0,0.693797,2650.042076,191.627493)">
                            <path d="M8524.062,513.605C8522.332,513.605 8520.684,513.476 8519.119,513.216C8517.553,512.957 8516.204,512.65 8515.071,512.295C8513.938,511.94 8513.129,511.616 8512.645,511.322L8513.89,505.38C8514.548,505.761 8515.387,506.137 8516.407,506.509C8517.428,506.881 8518.557,507.188 8519.794,507.43C8521.03,507.672 8522.28,507.793 8523.543,507.793C8525.705,507.793 8527.327,507.447 8528.408,506.755C8529.489,506.063 8530.03,503.408 8530.03,503.408C8530.03,503.408 8529.745,501.436 8529.174,500.709C8528.603,499.983 8527.712,499.278 8526.501,498.595C8525.29,497.911 8523.751,497.12 8521.882,496.22C8520.291,495.442 8518.777,494.512 8517.341,493.431C8515.906,492.35 8514.734,491.07 8513.826,489.591C8512.917,488.112 8512.463,486.395 8512.463,484.44C8512.463,482.606 8512.818,481.045 8513.527,479.756C8514.236,478.468 8515.209,477.412 8516.446,476.591C8517.683,475.769 8519.093,475.168 8520.676,474.787C8522.259,474.407 8523.941,474.216 8525.723,474.216C8528.283,474.216 8530.389,474.459 8532.041,474.943C8533.693,475.427 8534.856,475.894 8535.531,476.344L8534.234,482.053C8533.386,481.482 8532.288,480.963 8530.938,480.496C8529.589,480.029 8527.954,479.795 8526.034,479.795C8524.789,479.795 8523.686,479.947 8522.726,480.249C8521.766,480.552 8521.009,481.006 8520.455,481.612C8519.902,482.217 8519.625,482.97 8519.625,483.869C8519.625,484.907 8519.863,485.785 8520.338,486.503C8520.814,487.221 8521.584,487.908 8522.648,488.566C8523.712,489.223 8525.091,489.975 8526.787,490.823C8528.222,491.532 8529.58,492.268 8530.86,493.029C8532.141,493.79 8533.274,494.629 8534.26,495.546C8535.246,496.462 8536.02,497.509 8536.582,498.685C8537.144,499.862 8537.425,501.211 8537.425,502.733C8537.425,505.069 8536.88,507.045 8535.791,508.662C8534.701,510.28 8533.157,511.508 8531.159,512.347C8529.161,513.186 8526.795,513.605 8524.062,513.605Z" style="fill-rule:nonzero;"/>
                        </g>
                    </g>
                    <g>
                        <g transform="matrix(1,0,0,1,39.121168,92.511953)">
                            <path d="M8403.467,513.19L8403.467,461.744L8434.176,461.744L8434.176,469.257L8413.438,469.257L8413.438,484.005L8429.017,484.005L8429.017,491.518L8413.438,491.518L8413.438,513.19L8403.467,513.19Z" style="fill-rule:nonzero;"/>
                        </g>
                        <g transform="matrix(1,0,0,1,39.121168,92.511953)">
                            <path d="M8442.692,513.19L8442.692,461.744L8473.609,461.744L8473.609,469.257L8452.629,469.257L8452.629,483.105L8468.416,483.105L8468.416,490.479L8452.629,490.479L8452.629,505.505L8475.859,505.505L8475.859,513.19L8442.692,513.19Z" style="fill-rule:nonzero;"/>
                        </g>
                        <g transform="matrix(1,0,0,1,39.121168,92.511953)">
                            <path d="M8483.579,513.19L8489.119,461.744L8502.794,461.744L8510.791,489.718L8513.353,501.108L8515.534,489.718L8522.977,461.744L8536.168,461.744L8542.4,513.19L8532.671,513.19L8529.971,483.555L8529.071,469.118L8525.678,483.728L8516.746,513.606L8509.372,513.606L8499.92,483.728L8496.32,469.118L8495.35,483.555L8492.927,513.19L8483.579,513.19Z" style="fill-rule:nonzero;"/>
                        </g>
                        <g transform="matrix(1,0,0,1,39.121168,92.511953)">
                            <path d="M8551.055,513.19L8556.594,461.744L8570.269,461.744L8578.266,489.718L8580.828,501.108L8583.009,489.718L8590.453,461.744L8603.643,461.744L8609.875,513.19L8600.147,513.19L8597.446,483.555L8596.546,469.118L8593.153,483.728L8584.221,513.606L8576.847,513.606L8567.396,483.728L8563.795,469.118L8562.826,483.555L8560.402,513.19L8551.055,513.19Z" style="fill-rule:nonzero;"/>
                        </g>
                        <g transform="matrix(1,0,0,1,39.121168,92.511953)">
                            <path d="M8620.953,513.19L8620.953,461.744L8651.87,461.744L8651.87,469.257L8630.89,469.257L8630.89,483.105L8646.676,483.105L8646.676,490.479L8630.89,490.479L8630.89,505.505L8654.12,505.505L8654.12,513.19L8620.953,513.19Z" style="fill-rule:nonzero;"/>
                        </g>
                        <g transform="matrix(1,0,0,1,39.121168,92.511953)">
                            <path d="M8677.835,513.744C8675.527,513.744 8673.328,513.571 8671.24,513.225C8669.151,512.879 8667.351,512.469 8665.839,511.996C8664.327,511.523 8663.248,511.09 8662.602,510.698L8664.264,502.77C8665.141,503.277 8666.26,503.779 8667.622,504.276C8668.984,504.772 8670.49,505.181 8672.14,505.505C8673.79,505.828 8675.458,505.989 8677.143,505.989C8680.028,505.989 8682.191,505.528 8683.634,504.604C8685.076,503.681 8685.798,502.193 8685.798,500.138C8685.798,498.707 8685.417,497.507 8684.655,496.538C8683.894,495.568 8682.705,494.628 8681.089,493.716C8679.474,492.805 8677.419,491.749 8674.927,490.549C8672.803,489.51 8670.784,488.269 8668.868,486.827C8666.953,485.384 8664.177,481.703 8664.177,481.703C8664.177,481.703 8662.36,477.439 8662.36,474.831C8662.36,472.384 8662.833,470.301 8663.779,468.582C8664.725,466.862 8666.024,465.454 8667.674,464.358C8669.324,463.262 8671.205,462.46 8673.317,461.952C8675.429,461.444 8677.673,461.19 8680.051,461.19C8683.467,461.19 8686.277,461.513 8688.481,462.16C8690.685,462.806 8692.237,463.429 8693.137,464.029L8691.406,471.646C8690.275,470.884 8688.81,470.192 8687.009,469.568C8685.209,468.945 8683.028,468.634 8680.466,468.634C8678.804,468.634 8677.333,468.836 8676.052,469.24C8674.771,469.643 8673.761,470.249 8673.023,471.057C8672.284,471.865 8671.915,472.869 8671.915,474.069C8671.915,475.454 8672.232,476.625 8672.867,477.583C8673.502,478.541 8674.529,479.458 8675.948,480.335C8677.368,481.213 8679.208,482.217 8681.47,483.347C8683.386,484.294 8685.198,485.275 8686.906,486.29C8688.613,487.306 8690.125,488.425 8691.441,489.648C8692.756,490.872 8693.789,492.268 8694.539,493.837C8695.289,495.407 8695.664,497.207 8695.664,499.238C8695.664,502.354 8694.937,504.991 8693.483,507.149C8692.029,509.307 8689.969,510.946 8687.304,512.065C8684.638,513.185 8681.482,513.744 8677.835,513.744Z" style="fill-rule:nonzero;"/>
                        </g>
                    </g>
                    <g transform="matrix(0,0.057157,-0.101434,0,8865.228637,213.069848)">
                        <rect x="5643.124" y="1147.235" width="1444.789" height="63.091"/>
                    </g>
                    <g transform="matrix(0,0.115954,-0.101434,0,8553.45122,-203.683738)">
                        <rect x="5643.124" y="1147.235" width="1444.789" height="63.091"/>
                    </g>
                </g>
            </g>
        </g>
    </g>
</svg>
